<?xml version="1.0" encoding="utf-8"?>
<svg width="24" height="24" viewBox="0 0 24 24" xmlns="http://www.w3.org/2000/svg">
  <!-- Terminal/Code editor icon -->
  <rect x="2" y="3" width="20" height="18" rx="2" ry="2" fill="#2d3436" stroke="#2d3436" stroke-width="1"/>
  <rect x="3" y="5" width="18" height="15" rx="1" ry="1" fill="#1e272e"/>
  
  <!-- Terminal prompt -->
  <text x="4" y="9" font-family="monospace" font-size="3" fill="#00d2d3">&gt;_</text>
  
  <!-- Code lines -->
  <rect x="4" y="10" width="6" height="1" fill="#ff6348" rx="0.5"/>
  <rect x="11" y="10" width="4" height="1" fill="#54a0ff" rx="0.5"/>
  <rect x="16" y="10" width="3" height="1" fill="#48dbfb" rx="0.5"/>
  
  <rect x="4" y="12" width="8" height="1" fill="#feca57" rx="0.5"/>
  <rect x="13" y="12" width="5" height="1" fill="#ff6348" rx="0.5"/>
  
  <rect x="4" y="14" width="4" height="1" fill="#54a0ff" rx="0.5"/>
  <rect x="9" y="14" width="6" height="1" fill="#00d2d3" rx="0.5"/>
  <rect x="16" y="14" width="3" height="1" fill="#48dbfb" rx="0.5"/>
  
  <rect x="4" y="16" width="7" height="1" fill="#ff6348" rx="0.5"/>
  <rect x="12" y="16" width="4" height="1" fill="#feca57" rx="0.5"/>
  
  <rect x="4" y="18" width="5" height="1" fill="#00d2d3" rx="0.5"/>
</svg>